<?xml version="1.0" encoding="UTF-8"?>
<!DOCTYPE svg  PUBLIC '-//W3C//DTD SVG 1.1//EN'  'http://www.w3.org/Graphics/SVG/1.1/DTD/svg11.dtd'>
<svg enable-background="new 0 0 1920 1260" version="1.1" viewBox="0 0 1920 1260" xml:space="preserve" xmlns="http://www.w3.org/2000/svg">
<g fill="#00A79D">
	<path d="m1639.6 1028.3l-152.84-346.9c-16.438-37.313-46.968-71.867-85.963-97.301-38.995-25.432-82.928-39.439-123.7-39.439h-13.53c-9.317 18.042-20.309 35.364-32.945 51.799l-36.729 60.879h83.204c39.742 0 90.528 33.121 106.55 69.491l152.84 346.91c4.816 10.927 4.319 17.852 3.353 19.332-0.967 1.482-7.103 4.728-19.044 4.728h-1121.6c-11.942 0-18.078-3.246-19.044-4.728-0.966-1.48-1.463-8.405 3.352-19.334l152.84-346.9c16.023-36.369 66.809-69.492 106.55-69.492h83.206l-36.729-60.878c-12.637-16.436-23.63-33.758-32.947-51.8h-13.53c-40.773 0-84.704 14.007-123.7 39.439s-69.525 59.988-85.964 97.301l-152.84 346.9c-19.729 44.78-17.767 90.819 5.382 126.32 23.15 35.494 64.491 55.853 113.42 55.853h1121.6c48.934 0 90.275-20.359 113.42-55.853 23.149-35.497 25.111-81.537 5.383-126.32z"/>
	<path d="m960 49.52c-161.43 0-292.3 130.87-292.3 292.3 0 67.909 23.163 130.4 62.013 180.03l230.28 381.7 230.28-381.7c38.85-49.625 62.013-112.12 62.013-180.03 0-161.43-130.87-292.3-292.3-292.3zm0 441.11c-85.027 0-153.96-68.928-153.96-153.96s68.928-153.96 153.96-153.96 153.96 68.928 153.96 153.96-68.928 153.96-153.96 153.96z"/>
</g>
</svg>
